 http://www.shotpix.com/images/48785825473122636035.jpeg



Source: 720p.BluRay.x264-VETO
 
http://www.imdb.com/title/tt1849899/

When 12-year-old Trinity Goodheart is visited by an angel who leaves her a pendant that belonged to her long-lost mother, Trinity concludes that her mother is in danger and needs her help. What ensues is an effort by Trinity to reunite her disjointed family; and in the process, she teaches them the value of love, faith and forgiveness

General
Complete name                            : Trinity Goodheart 2011 BRRip x264 AAC-BiGKATS.mp4
Format                                   : MPEG-4
Format profile                           : Base Media
Codec ID                                 : isom
File size                                : 700 MiB
Duration                                 : 1h 30mn
Overall bit rate mode                    : Variable
Overall bit rate                         : 1 081 Kbps
Encoded date                             : UTC 2013-01-22 23:18:23
Tagged date                              : UTC 2013-01-22 23:18:23

Video
ID                                       : 1
Format                                   : AVC
Format/Info                              : Advanced Video Codec
Format profile                           : High@L4.1
Format settings, CABAC                   : Yes
Format settings, ReFrames                : 3 frames
Codec ID                                 : avc1
Codec ID/Info                            : Advanced Video Coding
Duration                                 : 1h 30mn
Bit rate mode                            : Variable
Bit rate                                 : 950 Kbps
Maximum bit rate                         : 40.0 Mbps
Width                                    : 720 pixels
Height                                   : 400 pixels
Display aspect ratio                     : 16:9
Frame rate mode                          : Constant
Frame rate                               : 23.976 fps
Color space                              : YUV
Chroma subsampling                       : 4:2:0
Bit depth                                : 8 bits
Scan type                                : Progressive
Bits/(Pixel*Frame)                       : 0.138
Stream size                              : 615 MiB (88%)
Writing library                          : x264 core 129 r2245 bc13772

Audio
ID                                       : 2
Format                                   : AAC
Format/Info                              : Advanced Audio Codec
Format profile                           : LC
Codec ID                                 : 40
Duration                                 : 1h 30mn
Bit rate mode                            : Variable
Bit rate                                 : 128 Kbps
Maximum bit rate                         : 140 Kbps
Channel(s)                               : 6 channels
Channel positions                        : Front: L C R, Side: L R, LFE
Sampling rate                            : 48.0 KHz
Compression mode                         : Lossy
Stream size                              : 82.6 MiB (12%)
Language                                 : English
Encoded date                             : UTC 2013-01-22 21:36:26
Tagged date                              : UTC 2013-01-22 23:18:56

 
http://www.shotpix.com/images/35640220746503482162.png 
http://www.shotpix.com/images/42465129326625349398.png 
http://www.shotpix.com/images/68318056427379212566.png 
http://www.shotpix.com/images/39936178292871008550.png